<svg xmlns="http://www.w3.org/2000/svg" width="73.833" height="74.382" viewBox="0 0 208.372 209.923">
    <path d="M205.064 96.734 112.385 3.38c-4.455-4.512-11.91-4.498-16.376 0L3.35 96.734c-4.456 4.484-4.473 11.988-.004 16.475l92.667 93.356c4.449 4.462 11.931 4.49 16.373.007l92.679-93.363c4.801-4.83 4.004-11.543 0-16.475" style="fill:#fcd116;fill-opacity:1;fill-rule:nonzero;stroke:none"/>
    <path d="m202.996 111.12-92.681 93.356c-3.33 3.348-8.887 3.341-12.231 0l-92.66-93.355c-3.324-3.362-3.349-8.943-.005-12.305l92.668-93.37c3.32-3.32 8.918-3.334 12.227 0l92.675 93.37c3.316 3.348 3.327 8.964.007 12.305" style="fill:#000;fill-opacity:1;fill-rule:evenodd;stroke:none"/>
    <path d="M199.557 107.656c1.436-1.46 1.436-3.93 0-5.397l-92.69-93.342c-1.445-1.439-3.887-1.474-5.33 0L8.863 102.26c-1.436 1.503-1.464 3.902.004 5.397l92.674 93.356c1.454 1.46 3.86 1.453 5.327 0l92.69-93.356" style="fill:#fcd116;fill-opacity:1;fill-rule:evenodd;stroke:none"/>
    <path d="M149.946 81.244c0 4.134-.978 7.507-2.833 9.359-.868.875-1.838 1.203-3.471 1.203h-4.9v-21.12h5.545a4.4 4.4 0 0 1 3.157 1.312c1.524 1.63 2.502 5.111 2.502 9.246m5.01 0c0-6.093-1.85-10.993-5.12-13.822-1.626-1.305-2.825-1.63-5.983-1.63h-10.008v31.013h11.208c1.626-.11 3.266-.653 4.459-1.74 3.485-2.72 5.443-7.616 5.443-13.821m-35.803 1.848h-6.199l3.154-8.706 3.045 8.706zm10.012 13.713-10.658-31.013h-4.9l-10.664 31.013h5.22l3.045-8.7h9.69l3.045 8.7h5.222zm-28.614 0v-4.999H86.18v-8.498h9.035v-5.003H86.18v-7.62h13.384v-4.893H81.288v31.013h19.262zM69.533 81.244c0 4.134-.98 7.507-2.829 9.359-.868.875-1.852 1.203-3.485 1.203h-4.893v-21.12h5.545c1.313 0 2.4.542 3.161 1.312 1.52 1.63 2.501 5.111 2.501 9.246m5.003 0c0-6.093-1.849-10.993-5.112-13.822-1.633-1.305-2.83-1.63-5.987-1.63H53.426v31.013h11.211c1.633-.11 3.267-.653 4.463-1.74 3.481-2.72 5.436-7.616 5.436-13.821M136.13 132.732c0 4.134-.976 7.51-2.832 9.355-.868.875-1.845 1.2-3.485 1.2h-4.893v-21.11h5.545a4.4 4.4 0 0 1 3.158 1.308c1.53 1.63 2.508 5.112 2.508 9.247m5.002 0c0-6.096-1.848-10.99-5.112-13.822-1.633-1.302-2.832-1.633-5.99-1.633h-10.004v31.016h11.204c1.633-.106 3.266-.65 4.466-1.746 3.478-2.713 5.436-7.613 5.436-13.815m-28.402 15.56v-31.015h-4.9v19.808l-11.31-19.808h-4.9v31.016h4.9v-21.005l11.864 21.005h4.346zm-26.222 0v-5.005H72.144v-8.488h9.031v-5.006h-9.031v-7.616h13.388v-4.9H67.25v31.016h19.258z" style="fill:#000;fill-opacity:1;fill-rule:evenodd;stroke:none"/>
</svg>
